<svg width="57" height="55" viewBox="0 0 57 55" fill="none" xmlns="http://www.w3.org/2000/svg">
<path d="M3.25339 0H53.7466C55.4582 0 57 1.4877 57 3.13923V51.8608C57 53.5123 55.4582 55 53.7466 55H3.25339C1.5418 55 0 53.5123 0 51.8608V3.13923C0 1.4877 1.5418 0 3.25339 0ZM40.4784 30.8823H48.3517L48.694 23.6156H40.4784V18.2488C40.4784 16.185 40.9056 15.0276 43.6441 15.0276H48.4366L48.6091 8.25502C48.6091 8.25502 46.4703 7.92472 43.3895 7.92472C35.8585 7.92472 32.5202 12.4671 32.5202 17.3398V23.6156H26.9582V30.8823H32.5202V51.031H40.4784V30.8823Z" fill="#04ECFE"/>
</svg>
