<svg width="55" height="55" viewBox="0 0 55 55" fill="none" xmlns="http://www.w3.org/2000/svg">
<path fill-rule="evenodd" clip-rule="evenodd" d="M0 11C0 4.92486 4.92486 0 11 0H44C50.075 0 55 4.92486 55 11V44C55 50.075 50.075 55 44 55H11C4.92486 55 0 50.075 0 44V11ZM11 5.5C7.96243 5.5 5.5 7.96243 5.5 11V44C5.5 47.0377 7.96243 49.5 11 49.5H44C47.0377 49.5 49.5 47.0377 49.5 44V11C49.5 7.96243 47.0377 5.5 44 5.5H11ZM27.5 19.25C22.9435 19.25 19.25 22.9435 19.25 27.5C19.25 32.0565 22.9435 35.75 27.5 35.75C32.0565 35.75 35.75 32.0565 35.75 27.5C35.75 22.9435 32.0565 19.25 27.5 19.25ZM13.75 27.5C13.75 19.9061 19.9061 13.75 27.5 13.75C35.0938 13.75 41.25 19.9061 41.25 27.5C41.25 35.0938 35.0938 41.25 27.5 41.25C19.9061 41.25 13.75 35.0938 13.75 27.5ZM42.625 16.5C44.9031 16.5 46.75 14.6532 46.75 12.375C46.75 10.0968 44.9031 8.25 42.625 8.25C40.3469 8.25 38.5 10.0968 38.5 12.375C38.5 14.6532 40.3469 16.5 42.625 16.5Z" fill="#FFB002"/>
</svg>
