<svg width="26" height="25" viewBox="0 0 26 25" fill="none" xmlns="http://www.w3.org/2000/svg">
<path d="M10 12.25L16 17.25M16 12.25L10 17.25M22 4.75L20.7987 19.7661C20.6935 21.0812 20.6408 21.7389 20.3 22.2375C19.9999 22.6765 19.5472 23.0294 19.0017 23.2498C18.382 23.5 17.591 23.5 16.0093 23.5H9.99065C8.4089 23.5 7.61803 23.5 6.99833 23.2498C6.45275 23.0294 6.00008 22.6765 5.69998 22.2375C5.3591 21.7389 5.3065 21.0812 5.20129 19.7661L4 4.75M1 4.75H25M19 4.75L18.5941 3.73509C18.2006 2.75156 18.0039 2.2598 17.6391 1.89622C17.3169 1.57516 16.9031 1.32665 16.4357 1.17348C15.9064 1 15.2845 1 14.0404 1H11.9596C10.7155 1 10.0936 1 9.56426 1.17348C9.09688 1.32665 8.68312 1.57516 8.36094 1.89622C7.99608 2.2598 7.79938 2.75156 7.40596 3.73509L7 4.75" stroke="#04ECFE" stroke-width="2" stroke-linecap="round" stroke-linejoin="round"/>
</svg>
