<svg width="49" height="42" viewBox="0 0 49 42" fill="none" xmlns="http://www.w3.org/2000/svg">
<path d="M48.436 2.15974C48.5134 1.60586 48.2876 1.05321 47.8427 0.707141C47.3974 0.361078 46.7995 0.273326 46.2707 0.476531L1.93886 17.5174C1.34156 17.747 0.940623 18.3057 0.919993 18.9371C0.899364 19.5685 1.26302 20.1508 1.84413 20.4168L14.8189 26.3568C15.3394 26.5951 15.9499 26.5401 16.4185 26.2127L26.8403 18.9311L20.7043 26.9474C20.4341 27.3004 20.3265 27.7488 20.4077 28.1834C20.489 28.618 20.7516 28.999 21.1315 29.2334L40.6838 41.2958C41.1436 41.5796 41.7185 41.614 42.2105 41.3873C42.7025 41.1606 43.0441 40.7034 43.1183 40.1731L48.436 2.15974Z" fill="#D9D9D9"/>
</svg>
